# xmcd CD database file
# Copyright (C) 1996 Ti Kan
#
# Track frame offsets:
# 	182
# 	13512
# 	28882
# 	42920
# 	56245
# 	71765
# 	90735
# 	100020
# 	120322
# 	131787
# 	147427
# 	165487
#
# Disc length: 2385 seconds
#
# Revision: 1
# Processed by: cddbd v1.4b41PL1 Copyright (c) Steve Scherf et al.
# Submitted via: DiscPlay 3.4b1
#
DISCID=a5094f0c
DTITLE=Desert Rose Band - A Dozen Roses (Greatest Hits)
DYEAR=1900
DGENRE=
TTITLE0=Love Reunited
TTITLE1=One Step Forward
TTITLE2=He's Back And I'm Blue
TTITLE3=She Don't Love Nobody
TTITLE4=Summer Wind
TTITLE5=I Still Believe In You
TTITLE6=Hello Trouble
TTITLE7=Start All Over Again
TTITLE8=Story Of Love
TTITLE9=Will This Be The Day
TTITLE10=Come A Little Closer
TTITLE11=Price I Pay
EXTD=
EXTT0=
EXTT1=
EXTT2=
EXTT3=
EXTT4=
EXTT5=
EXTT6=
EXTT7=
EXTT8=
EXTT9=
EXTT10=
EXTT11=
PLAYORDER=
